<?xml version="1.0" encoding="UTF-8" standalone="no"?>
<!-- Generator: Adobe Illustrator 15.0.0, SVG Export Plug-In . SVG Version: 6.00 Build 0)  -->

<svg
   xmlns:dc="http://purl.org/dc/elements/1.1/"
   xmlns:cc="http://creativecommons.org/ns#"
   xmlns:rdf="http://www.w3.org/1999/02/22-rdf-syntax-ns#"
   xmlns:svg="http://www.w3.org/2000/svg"
   xmlns="http://www.w3.org/2000/svg"
   xmlns:sodipodi="http://sodipodi.sourceforge.net/DTD/sodipodi-0.dtd"
   xmlns:inkscape="http://www.inkscape.org/namespaces/inkscape"
   version="1.1"
   id="Layer_1"
   x="0px"
   y="0px"
   width="20"
   height="20"
   viewBox="0 0 20 20"
   enable-background="new 0 0 512 512"
   xml:space="preserve"
   inkscape:version="0.48.5 r10040"
   sodipodi:docname="rss.svg"><metadata
     id="metadata3051"><rdf:RDF><cc:Work
         rdf:about=""><dc:format>image/svg+xml</dc:format><dc:type
           rdf:resource="http://purl.org/dc/dcmitype/StillImage" /></cc:Work></rdf:RDF></metadata><defs
     id="defs3049" /><sodipodi:namedview
     pagecolor="#ffffff"
     bordercolor="#666666"
     borderopacity="1"
     objecttolerance="10"
     gridtolerance="10"
     guidetolerance="10"
     inkscape:pageopacity="0"
     inkscape:pageshadow="2"
     inkscape:window-width="901"
     inkscape:window-height="653"
     id="namedview3047"
     showgrid="false"
     inkscape:zoom="8"
     inkscape:cx="13.753195"
     inkscape:cy="-2.0161864"
     inkscape:window-x="0"
     inkscape:window-y="0"
     inkscape:window-maximized="0"
     inkscape:current-layer="g3039" /><g
     id="g3039"
     transform="matrix(0.03125006,0,0,0.03125,1.999969,2)"><g
       id="g3181"
       style="fill:#ffffff"
       transform="translate(0,32)"><path
         d="m 68.148,375.465 c -37.598,0 -68.147,30.667 -68.147,68.038 0,37.577 30.55,67.901 68.147,67.901 37.733,0 68.247,-30.324 68.247,-67.901 -0.001,-37.371 -30.513,-68.038 -68.247,-68.038 z"
         id="path3183"
         inkscape:connector-curvature="0"
         style="fill:#ffffff" /><path
         d="m 0.078,173.965 v 98.129 c 63.892,0 123.979,24.986 169.229,70.255 45.192,45.16 70.141,105.518 70.141,169.651 h 98.561 C 338.008,325.59 186.368,173.965 0.078,173.965 z"
         id="path3185"
         inkscape:connector-curvature="0"
         style="fill:#ffffff" /><path
         d="m 0.195,0 v 98.178 c 227.89,0 413.379,185.668 413.379,413.822 H 512 C 512,229.765 282.373,0 0.195,0 z"
         id="path3187"
         inkscape:connector-curvature="0"
         style="fill:#ffffff" /></g><g
       id="g3162"><path
         inkscape:connector-curvature="0"
         id="path3041"
         d="m 68.148,375.465 c -37.598,0 -68.147,30.667 -68.147,68.038 0,37.577 30.55,67.901 68.147,67.901 37.733,0 68.247,-30.324 68.247,-67.901 -0.001,-37.371 -30.513,-68.038 -68.247,-68.038 z" /><path
         inkscape:connector-curvature="0"
         id="path3043"
         d="m 0.078,173.965 v 98.129 c 63.892,0 123.979,24.986 169.229,70.255 45.192,45.16 70.141,105.518 70.141,169.651 h 98.561 C 338.008,325.59 186.368,173.965 0.078,173.965 z" /><path
         inkscape:connector-curvature="0"
         id="path3045"
         d="m 0.195,0 v 98.178 c 227.89,0 413.379,185.668 413.379,413.822 H 512 C 512,229.765 282.373,0 0.195,0 z" /></g></g></svg>