<?xml version="1.0" encoding="UTF-8" standalone="no"?>
<!DOCTYPE svg PUBLIC "-//W3C//DTD SVG 1.1//EN"
 "http://www.w3.org/Graphics/SVG/1.1/DTD/svg11.dtd">
<!-- Generated by graphviz version 2.38.0 (20140413.2041)
 -->
<!-- Title: %3 Pages: 1 -->
<svg width="536pt" height="214pt"
 viewBox="0.00 0.00 535.79 214.00" xmlns="http://www.w3.org/2000/svg" xmlns:xlink="http://www.w3.org/1999/xlink">
<g id="graph0" class="graph" transform="scale(1 1) rotate(0) translate(4 210)">
<title>%3</title>
<polygon fill="white" stroke="none" points="-4,4 -4,-210 531.787,-210 531.787,4 -4,4"/>
<!-- dog -->
<g id="node1" class="node"><title>dog</title>
<ellipse fill="lightgrey" stroke="black" cx="378.893" cy="-99" rx="27" ry="18"/>
<text text-anchor="middle" x="378.893" y="-95.3" font-family="Times,serif" font-size="14.00">dog</text>
</g>
<!-- door -->
<g id="node2" class="node"><title>door</title>
<ellipse fill="lightgrey" stroke="black" cx="493.34" cy="-72" rx="27" ry="18"/>
<text text-anchor="middle" x="493.34" y="-68.3" font-family="Times,serif" font-size="14.00">door</text>
</g>
<!-- doofus -->
<g id="node3" class="node"><title>doofus</title>
<ellipse fill="lightgrey" stroke="black" cx="493.34" cy="-18" rx="34.394" ry="18"/>
<text text-anchor="middle" x="493.34" y="-14.3" font-family="Times,serif" font-size="14.00">doofus</text>
</g>
<!-- dingo -->
<g id="node4" class="node"><title>dingo</title>
<ellipse fill="lightgrey" stroke="black" cx="267.946" cy="-188" rx="30.5947" ry="18"/>
<text text-anchor="middle" x="267.946" y="-184.3" font-family="Times,serif" font-size="14.00">dingo</text>
</g>
<!-- drainage -->
<g id="node5" class="node"><title>drainage</title>
<ellipse fill="lightgrey" stroke="black" cx="267.946" cy="-134" rx="40.8928" ry="18"/>
<text text-anchor="middle" x="267.946" y="-130.3" font-family="Times,serif" font-size="14.00">drainage</text>
</g>
<!-- s0 -->
<g id="node6" class="node"><title>s0</title>
<ellipse fill="none" stroke="black" stroke-dasharray="5,2" cx="27" cy="-134" rx="27" ry="18"/>
<text text-anchor="middle" x="27" y="-130.3" font-family="Times,serif" font-size="14.00">⬚</text>
</g>
<!-- d -->
<g id="node7" class="node"><title>d</title>
<ellipse fill="none" stroke="black" stroke-dasharray="5,2" cx="124" cy="-134" rx="27" ry="18"/>
<text text-anchor="middle" x="124" y="-130.3" font-family="Times,serif" font-size="14.00">d</text>
</g>
<!-- s0&#45;&gt;d -->
<g id="edge1" class="edge"><title>s0&#45;&gt;d</title>
<path fill="none" stroke="black" d="M54.2106,-134C64.2826,-134 75.9647,-134 86.8114,-134"/>
<polygon fill="black" stroke="black" points="86.8749,-137.5 96.8749,-134 86.8749,-130.5 86.8749,-137.5"/>
<text text-anchor="middle" x="75.5" y="-137.8" font-family="Times,serif" font-size="14.00">d</text>
</g>
<!-- d&#45;&gt;dingo -->
<g id="edge4" class="edge"><title>d&#45;&gt;dingo</title>
<path fill="none" stroke="black" d="M146.818,-143.751C153.858,-146.809 161.723,-150.132 169,-153 189.507,-161.082 212.725,-169.414 231.408,-175.92"/>
<polygon fill="black" stroke="black" points="230.405,-179.276 240.999,-179.239 232.694,-172.661 230.405,-179.276"/>
<text text-anchor="middle" x="189" y="-171.8" font-family="Times,serif" font-size="14.00">ingo</text>
</g>
<!-- d&#45;&gt;drainage -->
<g id="edge2" class="edge"><title>d&#45;&gt;drainage</title>
<path fill="none" stroke="black" d="M151.035,-134C169.345,-134 194.434,-134 216.588,-134"/>
<polygon fill="black" stroke="black" points="216.854,-137.5 226.854,-134 216.854,-130.5 216.854,-137.5"/>
<text text-anchor="middle" x="189" y="-137.8" font-family="Times,serif" font-size="14.00">rainage</text>
</g>
<!-- do -->
<g id="node8" class="node"><title>do</title>
<ellipse fill="none" stroke="black" stroke-dasharray="5,2" cx="267.946" cy="-80" rx="27" ry="18"/>
<text text-anchor="middle" x="267.946" y="-76.3" font-family="Times,serif" font-size="14.00">do</text>
</g>
<!-- d&#45;&gt;do -->
<g id="edge3" class="edge"><title>d&#45;&gt;do</title>
<path fill="none" stroke="black" d="M146.818,-124.249C153.858,-121.191 161.723,-117.868 169,-115 190.459,-106.543 214.889,-97.8115 233.982,-91.1852"/>
<polygon fill="black" stroke="black" points="235.124,-94.4938 243.436,-87.9245 232.841,-87.8763 235.124,-94.4938"/>
<text text-anchor="middle" x="189" y="-118.8" font-family="Times,serif" font-size="14.00">o</text>
</g>
<!-- do&#45;&gt;dog -->
<g id="edge5" class="edge"><title>do&#45;&gt;dog</title>
<path fill="none" stroke="black" d="M294.215,-84.4067C308.55,-86.9067 326.715,-90.0748 342.455,-92.8198"/>
<polygon fill="black" stroke="black" points="341.931,-96.2812 352.384,-94.5513 343.134,-89.3853 341.931,-96.2812"/>
<text text-anchor="middle" x="330.393" y="-95.8" font-family="Times,serif" font-size="14.00">g</text>
</g>
<!-- doo -->
<g id="node9" class="node"><title>doo</title>
<ellipse fill="none" stroke="black" stroke-dasharray="5,2" cx="378.893" cy="-45" rx="27" ry="18"/>
<text text-anchor="middle" x="378.893" y="-41.3" font-family="Times,serif" font-size="14.00">doo</text>
</g>
<!-- do&#45;&gt;doo -->
<g id="edge6" class="edge"><title>do&#45;&gt;doo</title>
<path fill="none" stroke="black" d="M292.586,-72.4055C307.719,-67.5439 327.586,-61.1614 344.34,-55.7791"/>
<polygon fill="black" stroke="black" points="345.849,-58.9706 354.299,-52.5797 343.708,-52.3061 345.849,-58.9706"/>
<text text-anchor="middle" x="330.393" y="-64.8" font-family="Times,serif" font-size="14.00">o</text>
</g>
<!-- doo&#45;&gt;door -->
<g id="edge7" class="edge"><title>doo&#45;&gt;door</title>
<path fill="none" stroke="black" d="M404.57,-50.9253C420.096,-54.6533 440.367,-59.5207 457.516,-63.6384"/>
<polygon fill="black" stroke="black" points="457.179,-67.157 467.72,-66.0886 458.814,-60.3504 457.179,-67.157"/>
<text text-anchor="middle" x="432.393" y="-63.8" font-family="Times,serif" font-size="14.00">r</text>
</g>
<!-- doo&#45;&gt;doofus -->
<g id="edge8" class="edge"><title>doo&#45;&gt;doofus</title>
<path fill="none" stroke="black" d="M404.57,-39.0747C418.358,-35.7639 435.89,-31.5544 451.653,-27.7695"/>
<polygon fill="black" stroke="black" points="452.793,-31.0954 461.699,-25.3572 451.158,-24.2888 452.793,-31.0954"/>
<text text-anchor="middle" x="432.393" y="-37.8" font-family="Times,serif" font-size="14.00">fus</text>
</g>
</g>
</svg>
